# xmcd CD database file
# Copyright (C) 1997 Ti Kan
# 
# Track frame offsets:
#     183
#     12558
#     28480
#     40290
#     58263
#     71645
#     87913
#     103683
#     115418
#     125798
#     138280
#     154320
#     174460
#     186133
#     200553
#     213960
#     226158
#     238008
# 
# Disc length: 3319 seconds
# 
# Revision: 1
# Processed by: cddbd v1.4b41PL1 Copyright (c) Steve Scherf et al.
# Submitted via: DiscPlay 4.0.4
# 
DISCID=0e0cf512
DTITLE=Aretha Franklyn - La Regina - Il Meglio di Aretha Franklin
DYEAR=1900
DGENRE=
TTITLE0=You Make Me Feel (Like a Natural Woman)
TTITLE1=Spanish Harlem
TTITLE2=Satisfaction
TTITLE3=Day Dreaming
TTITLE4=The Weight
TTITLE5=You're All I Neet to Get by
TTITLE6=Let it Be
TTITLE7=Ain't Nobody (Gonna Turn Me Around)
TTITLE8=Think
TTITLE9=Chain of Fools
TTITLE10=I Say A Little Prayer
TTITLE11=Angel
TTITLE12=Eleanor Rigby
TTITLE13=Rock Steady
TTITLE14=Don't Play That Song
TTITLE15=I Never Loved A Man (The Way I Love You)
TTITLE16=Baby I Love You
TTITLE17=Respect
EXTD=
EXTT0=
EXTT1=
EXTT2=
EXTT3=
EXTT4=
EXTT5=
EXTT6=
EXTT7=
EXTT8=
EXTT9=
EXTT10=
EXTT11=
EXTT12=
EXTT13=
EXTT14=
EXTT15=
EXTT16=
EXTT17=
PLAYORDER=
